<svg id="Layer_2" data-name="Layer 2" xmlns="http://www.w3.org/2000/svg" xmlns:xlink="http://www.w3.org/1999/xlink" viewBox="0 0 1080 1080"><defs><style>.cls-1{fill:url(#linear-gradient);}</style><linearGradient id="linear-gradient" x1="295.73" y1="540" x2="784.27" y2="540" gradientUnits="userSpaceOnUse"><stop offset="0" stop-color="#b31550"/><stop offset="1" stop-color="#154481"/></linearGradient></defs><path class="cls-1" d="M782.76,515.63h0a62.81,62.81,0,0,0-2.66-18.42h0a127.92,127.92,0,0,0-10.27-36.83,99.91,99.91,0,0,0-11.69-25h0a35.35,35.35,0,0,0-1.86-4.16,187,187,0,0,0-58.76-60.71c-40.7-26.34-86-37.15-133.79-37.46-87.24-.56-174.48-.21-261.71-.23a24.48,24.48,0,0,0-5.22.25c-1.46.32-1.28,1.45-.37,2.43h0c17.15,24.91,34.37,49.77,52.93,73.65h0c4.69,6,9.33,12,14.07,17.89q19.77,24.76,39.6,49.48c1.53,5,6.09,7.67,8.9,11.72,5.12,7.38,11,14.21,17.22,22.05l-43.7,4.05c5,6.76,9.24,12.48,14.63,17.26a5.67,5.67,0,0,0,.65,1.83q25.5,30.64,51,61.23a27.62,27.62,0,0,1,3.05,3.07c14.71,19.87,30.95,38.48,46.9,57.33,5.59,6.95,11.11,13.95,16.78,20.84q23.47,28.51,47,56.94L577,747.25a38.37,38.37,0,0,0-6.71-15.09h0a74.84,74.84,0,0,1-4.58-7.66c-10.53-23.41-23.29-45.64-35.54-68.14h0c-8.12-17-17.22-33.41-26.26-49.88h0L478,557.72h0c-2.44-4.81-.41-6,4.38-6.65,20.51-2.75,40.95-5.92,61.42-8.94h0c2.16-.1,4.33-.19,6.49-.32,3.47-.2,4-1.69,2.28-4.65q-20.13-34.42-40.14-68.9c-9.53-17.86-19.49-35.47-30.31-52.58h0L480.86,412h0c2.61-.15,5.22-.43,7.83-.43q41.32,0,82.65.1h0c5.34.93,10.68,1.79,16,2.8,28.1,5.34,52.92,16.84,72.06,38.83,3.57,4.11,6.81,8.5,10.21,12.76h0a163.63,163.63,0,0,1,16.46,42,13.15,13.15,0,0,0,.85,3.7h0c2.09,14.84,1.62,29.76,1.36,44.67h0a159,159,0,0,1-15.93,51.24h0c-13.14,20.85-30.59,36.72-53.2,46.85-7.78,3.48-16.08,5.33-24,8.39-9.5,1.27-19,2.9-28.53,3.64-4.67.36-5,1.51-3.22,5.37q15.15,33.45,29.94,67.05c1.4,3.18,2.91,4.1,6.39,3.58a281.76,281.76,0,0,0,32.13-6.26c28.29-7.62,54.81-19,77.78-37.66a159.35,159.35,0,0,0,45.81-51.14,158.89,158.89,0,0,0,22.3-55.16A123.89,123.89,0,0,0,783,558.05a6.52,6.52,0,0,0,.52-3.18c0-.42,0-.81,0-1.19C784.9,541,784.22,528.31,782.76,515.63Z"/></svg>